<?xml version="1.0" encoding="UTF-8"?>
<!DOCTYPE svg PUBLIC "-//W3C//DTD SVG 1.1//EN" "http://www.w3.org/Graphics/SVG/1.1/DTD/svg11.dtd">
<svg xmlns="http://www.w3.org/2000/svg" version="1.1" width="418px" height="418px" style="shape-rendering:geometricPrecision; text-rendering:geometricPrecision; image-rendering:optimizeQuality; fill-rule:evenodd; clip-rule:evenodd" xmlns:xlink="http://www.w3.org/1999/xlink">
<g><path style="opacity:1" fill="#f6f6f7" d="M -0.5,-0.5 C 138.833,-0.5 278.167,-0.5 417.5,-0.5C 417.5,138.833 417.5,278.167 417.5,417.5C 278.167,417.5 138.833,417.5 -0.5,417.5C -0.5,278.167 -0.5,138.833 -0.5,-0.5 Z"/></g>
<g><path style="opacity:1" fill="#76326f" d="M 228.5,56.5 C 228.5,57.5 228.5,58.5 228.5,59.5C 231.392,60.7166 233.726,62.7166 235.5,65.5C 234.376,66.914 233.376,68.414 232.5,70C 228.303,71.7007 225.303,74.5341 223.5,78.5C 219.946,79.7693 216.946,81.7693 214.5,84.5C 212.046,85.2271 209.713,86.2271 207.5,87.5C 203.458,87.5226 199.792,88.6893 196.5,91C 195.44,92.298 194.274,93.4647 193,94.5C 185.547,97.9901 178.38,101.823 171.5,106C 167.001,111.157 161.334,114.157 154.5,115C 152.649,116.684 150.982,118.517 149.5,120.5C 147.618,121.093 145.785,121.76 144,122.5C 143.51,123.793 143.343,125.127 143.5,126.5C 143.167,126.5 142.833,126.5 142.5,126.5C 140.194,126.993 137.861,127.326 135.5,127.5C 135.5,128.5 135.5,129.5 135.5,130.5C 129.83,133.274 123.83,135.44 117.5,137C 116.816,138.693 115.816,140.193 114.5,141.5C 109.639,144.669 104.805,147.669 100,150.5C 100.449,192.814 100.616,235.147 100.5,277.5C 103.793,279.6 107.46,280.934 111.5,281.5C 115.372,283.597 119.039,285.931 122.5,288.5C 122.389,289.117 122.056,289.617 121.5,290C 126.206,293.336 130.872,296.669 135.5,300C 139.251,301.11 142.917,302.276 146.5,303.5C 147.609,303.557 148.609,303.89 149.5,304.5C 149.751,306.17 150.418,307.67 151.5,309C 158.081,311.094 163.748,314.594 168.5,319.5C 170.396,320.466 172.396,320.799 174.5,320.5C 174.5,321.833 174.5,323.167 174.5,324.5C 178.188,324.178 180.855,325.678 182.5,329C 185.025,329.896 187.192,329.396 189,327.5C 190.609,298.197 190.942,268.864 190,239.5C 189.783,234.447 189.283,229.447 188.5,224.5C 185.689,222.856 183.356,220.69 181.5,218C 176.734,217.11 172.067,215.943 167.5,214.5C 166.833,214.5 166.167,214.5 165.5,214.5C 164.833,214.5 164.167,214.5 163.5,214.5C 162.761,214.369 162.094,214.536 161.5,215C 162.659,233.426 162.825,251.926 162,270.5C 159.958,270.818 157.791,270.985 155.5,271C 154.167,272 154.167,273 155.5,274C 157.657,274.078 159.657,274.245 161.5,274.5C 161.502,276.741 161.168,279.074 160.5,281.5C 154.527,279.848 149.527,276.681 145.5,272C 142.518,271.502 139.518,271.335 136.5,271.5C 136.072,267.024 133.572,264.691 129,264.5C 127.674,263.201 126.34,261.868 125,260.5C 124.167,229.495 124.333,198.495 125.5,167.5C 131.695,164.04 137.695,160.374 143.5,156.5C 146.231,158.349 149.231,159.849 152.5,161C 151.167,161.667 151.167,162.333 152.5,163C 159.809,165.161 166.809,167.994 173.5,171.5C 174.167,171.833 174.833,172.167 175.5,172.5C 176.242,174.426 177.242,176.259 178.5,178C 182.111,180.613 186.111,182.28 190.5,183C 195.873,187.605 201.873,190.772 208.5,192.5C 208.879,193.806 209.212,195.139 209.5,196.5C 214.856,199.178 220.189,201.844 225.5,204.5C 226.477,260.655 226.81,316.655 226.5,372.5C 226.631,373.376 226.298,374.043 225.5,374.5C 219.6,375.782 214.6,378.615 210.5,383C 207.854,383.497 205.187,383.664 202.5,383.5C 199.183,381.863 195.85,380.196 192.5,378.5C 185.765,374.472 179.098,370.472 172.5,366.5C 171.27,364.703 170.604,362.703 170.5,360.5C 165.704,361.067 162.038,359.401 159.5,355.5C 155.897,354.079 152.563,352.245 149.5,350C 150.167,348.667 150.833,347.333 151.5,346C 147.5,345.667 143.5,345.333 139.5,345C 136.892,341.024 133.225,339.524 128.5,340.5C 124.38,339.274 120.713,337.274 117.5,334.5C 116.886,329.941 113.886,327.608 108.5,327.5C 108.5,326.5 108.5,325.5 108.5,324.5C 104.087,323.869 99.7535,322.869 95.5,321.5C 95.631,320.761 95.4643,320.094 95,319.5C 92.1188,318.788 89.9522,317.122 88.5,314.5C 86.2534,313.626 83.9201,313.292 81.5,313.5C 80.8333,313.167 80.1667,312.833 79.5,312.5C 79.67,311.178 79.3366,310.011 78.5,309C 74.0567,306.466 69.39,304.633 64.5,303.5C 63.8333,303.167 63.1667,302.833 62.5,302.5C 61.6586,300.621 61.3253,298.621 61.5,296.5C 61.048,241.813 61.548,187.147 63,132.5C 63.2492,131.376 63.7492,130.376 64.5,129.5C 70.2003,127.093 75.5336,123.927 80.5,120C 83.6177,118.853 86.6177,117.52 89.5,116C 92.7888,112.58 96.7888,110.08 101.5,108.5C 102.857,106.814 104.19,105.148 105.5,103.5C 111.668,103.123 116.668,100.623 120.5,96C 125.13,93.7354 129.797,91.5687 134.5,89.5C 136.34,87.8152 137.673,85.8152 138.5,83.5C 140.463,82.1798 142.463,80.8465 144.5,79.5C 144.833,79.5 145.167,79.5 145.5,79.5C 150.202,78.159 154.869,76.8257 159.5,75.5C 159.297,73.6096 159.963,72.1096 161.5,71C 166.183,71.494 169.517,69.6606 171.5,65.5C 172.736,64.7542 174.07,64.4208 175.5,64.5C 175.5,63.5 175.5,62.5 175.5,61.5C 178.321,61.4613 180.988,60.7946 183.5,59.5C 192.183,55.497 200.183,50.497 207.5,44.5C 210.035,46.1948 212.702,47.6948 215.5,49C 216.167,50 216.833,51 217.5,52C 221.093,53.7807 224.76,55.2807 228.5,56.5 Z"/></g>
<g><path style="opacity:1" fill="#6e3f6a" d="M 214.5,46.5 C 219.469,49.4775 224.135,52.8108 228.5,56.5C 224.76,55.2807 221.093,53.7807 217.5,52C 216.833,51 216.167,50 215.5,49C 212.702,47.6948 210.035,46.1948 207.5,44.5C 200.183,50.497 192.183,55.497 183.5,59.5C 180.988,60.7946 178.321,61.4613 175.5,61.5C 185.773,54.6891 196.44,48.3558 207.5,42.5C 209.85,43.8611 212.184,45.1944 214.5,46.5 Z"/></g>
<g><path style="opacity:1" fill="#f5e6f4" d="M 214.5,46.5 C 212.184,45.1944 209.85,43.8611 207.5,42.5C 196.44,48.3558 185.773,54.6891 175.5,61.5C 174.609,62.1098 173.609,62.4431 172.5,62.5C 172.281,61.325 172.614,60.325 173.5,59.5C 177.848,57.7891 181.848,55.6224 185.5,53C 184.66,51.3335 185.16,51.1669 187,52.5C 190.041,49.5669 193.541,47.5669 197.5,46.5C 197.297,44.6096 197.963,43.1096 199.5,42C 202.622,40.3554 205.788,38.8554 209,37.5C 209.495,39.9897 210.995,41.4897 213.5,42C 213.167,42.3333 212.833,42.6667 212.5,43C 213.973,43.7096 214.64,44.8762 214.5,46.5 Z"/></g>
<g><path style="opacity:1" fill="#713c69" d="M 228.5,56.5 C 232.5,58.8333 236.5,61.1667 240.5,63.5C 241.429,64.3149 242.429,65.1482 243.5,66C 236.637,69.9273 229.97,74.0939 223.5,78.5C 225.303,74.5341 228.303,71.7007 232.5,70C 233.376,68.414 234.376,66.914 235.5,65.5C 233.726,62.7166 231.392,60.7166 228.5,59.5C 228.5,58.5 228.5,57.5 228.5,56.5 Z"/></g>
<g><path style="opacity:1" fill="#703d67" d="M 175.5,61.5 C 175.5,62.5 175.5,63.5 175.5,64.5C 174.07,64.4208 172.736,64.7542 171.5,65.5C 169.517,69.6606 166.183,71.494 161.5,71C 159.963,72.1096 159.297,73.6096 159.5,75.5C 154.869,76.8257 150.202,78.159 145.5,79.5C 154.669,74.0834 163.669,68.4167 172.5,62.5C 173.609,62.4431 174.609,62.1098 175.5,61.5 Z"/></g>
<g><path style="opacity:1" fill="#f5e9f4" d="M 240.5,63.5 C 242.167,63.5 243.833,63.5 245.5,63.5C 245.146,65.5412 245.146,67.3745 245.5,69C 235.588,74.5884 225.588,80.0884 215.5,85.5C 214.893,85.3764 214.56,85.0431 214.5,84.5C 216.946,81.7693 219.946,79.7693 223.5,78.5C 229.97,74.0939 236.637,69.9273 243.5,66C 242.429,65.1482 241.429,64.3149 240.5,63.5 Z"/></g>
<g><path style="opacity:1" fill="#f6e4f4" d="M 172.5,62.5 C 163.669,68.4167 154.669,74.0834 145.5,79.5C 145.167,79.5 144.833,79.5 144.5,79.5C 145.171,78.1529 145.171,76.9862 144.5,76C 152.726,72.2441 160.726,67.9107 168.5,63C 169.793,62.51 171.127,62.3433 172.5,62.5 Z"/></g>
<g><path style="opacity:1" fill="#e5f9f7" d="M 287.5,88.5 C 281.435,85.9764 275.601,82.9764 270,79.5C 264.576,82.1261 259.41,85.1261 254.5,88.5C 253.167,89.1667 251.833,89.8333 250.5,90.5C 250.5,89.1667 250.5,87.8333 250.5,86.5C 248.473,86.6621 246.473,86.4955 244.5,86C 243.167,85 243.167,84 244.5,83C 246.81,82.5034 249.143,82.3367 251.5,82.5C 251.5,83.8333 251.5,85.1667 251.5,86.5C 256.246,84.8487 260.579,82.3487 264.5,79C 268.5,78.3333 272.5,78.3333 276.5,79C 279.484,81.8258 282.817,84.1591 286.5,86C 287.252,86.6708 287.586,87.5041 287.5,88.5 Z"/></g>
<g><path style="opacity:1" fill="#4eb7a4" d="M 287.5,88.5 C 297.324,95.5829 307.658,101.916 318.5,107.5C 327.359,113.095 336.359,118.429 345.5,123.5C 347.869,124.69 349.869,126.357 351.5,128.5C 352.382,130.084 353.215,131.751 354,133.5C 354.5,189.832 354.667,246.166 354.5,302.5C 354.5,302.833 354.5,303.167 354.5,303.5C 343.325,310.924 331.658,317.591 319.5,323.5C 317.856,323.714 316.356,323.38 315,322.5C 314.39,275.152 314.39,227.818 315,180.5C 314.617,179.944 314.117,179.611 313.5,179.5C 311.545,178.07 309.879,178.403 308.5,180.5C 306.95,181.441 305.284,182.107 303.5,182.5C 301.409,182.318 299.409,182.652 297.5,183.5C 294.684,185.225 292.35,187.392 290.5,190C 291.819,214.39 292.486,238.89 292.5,263.5C 292.333,287.5 292.167,311.5 292,335.5C 290.351,336.885 289.184,338.551 288.5,340.5C 283.131,343.847 277.797,347.181 272.5,350.5C 272.167,350.5 271.833,350.5 271.5,350.5C 268.234,350.629 265.234,351.629 262.5,353.5C 261.833,353.167 261.167,352.833 260.5,352.5C 258.162,354.339 255.996,356.339 254,358.5C 253.228,358.355 252.561,358.022 252,357.5C 251.171,301.793 251.338,246.126 252.5,190.5C 243.612,184.555 234.279,179.389 224.5,175C 222.99,172.245 220.657,171.079 217.5,171.5C 213.38,170.274 209.713,168.274 206.5,165.5C 192.922,157.925 179.589,149.925 166.5,141.5C 169.896,139.079 173.229,136.746 176.5,134.5C 177.71,134.068 178.71,133.401 179.5,132.5C 185.527,129.155 191.527,125.821 197.5,122.5C 201.231,122.381 204.397,121.048 207,118.5C 207.833,118.667 208.667,118.833 209.5,119C 211.88,121.354 214.546,123.354 217.5,125C 222.996,127.249 228.33,129.749 233.5,132.5C 246.056,139.044 258.389,146.044 270.5,153.5C 276.491,148.836 282.824,144.67 289.5,141C 290.833,140.333 290.833,139.667 289.5,139C 276.94,132.562 264.94,125.396 253.5,117.5C 252.209,114.596 249.876,113.096 246.5,113C 245.257,111.846 244.257,110.512 243.5,109C 240.344,108.063 237.511,106.563 235,104.5C 235.451,102.48 236.284,100.48 237.5,98.5C 242.9,96.2985 248.233,93.7985 253.5,91C 254.252,90.3292 254.586,89.4959 254.5,88.5C 259.41,85.1261 264.576,82.1261 270,79.5C 275.601,82.9764 281.435,85.9764 287.5,88.5 Z"/></g>
<g><path style="opacity:1" fill="#73b7ac" d="M 254.5,88.5 C 254.586,89.4959 254.252,90.3292 253.5,91C 248.233,93.7985 242.9,96.2985 237.5,98.5C 241.811,95.8679 246.144,93.2013 250.5,90.5C 251.833,89.8333 253.167,89.1667 254.5,88.5 Z"/></g>
<g><path style="opacity:1" fill="#703f6a" d="M 207.5,87.5 C 192.5,96.8333 177.5,106.167 162.5,115.5C 156.031,118.902 149.697,122.569 143.5,126.5C 143.343,125.127 143.51,123.793 144,122.5C 145.785,121.76 147.618,121.093 149.5,120.5C 150.982,118.517 152.649,116.684 154.5,115C 161.334,114.157 167.001,111.157 171.5,106C 178.38,101.823 185.547,97.9901 193,94.5C 194.274,93.4647 195.44,92.298 196.5,91C 199.792,88.6893 203.458,87.5226 207.5,87.5 Z"/></g>
<g><path style="opacity:1" fill="#f8e6f7" d="M 111.5,98.5 C 109.5,100.167 107.5,101.833 105.5,103.5C 103.517,104.471 101.517,105.471 99.5,106.5C 99.3893,105.883 99.056,105.383 98.5,105C 101.974,101.015 106.307,98.8481 111.5,98.5 Z"/></g>
<g><path style="opacity:1" fill="#73416d" d="M 138.5,83.5 C 137.673,85.8152 136.34,87.8152 134.5,89.5C 129.797,91.5687 125.13,93.7354 120.5,96C 116.668,100.623 111.668,103.123 105.5,103.5C 107.5,101.833 109.5,100.167 111.5,98.5C 120.661,93.7536 129.661,88.7536 138.5,83.5 Z"/></g>
<g><path style="opacity:1" fill="#6bb6a8" d="M 237.5,98.5 C 236.284,100.48 235.451,102.48 235,104.5C 237.511,106.563 240.344,108.063 243.5,109C 244.257,110.512 245.257,111.846 246.5,113C 249.876,113.096 252.209,114.596 253.5,117.5C 248.051,115.61 243.051,112.943 238.5,109.5C 235.467,107.984 232.8,105.984 230.5,103.5C 232.326,101.09 234.66,99.4234 237.5,98.5 Z"/></g>
<g><path style="opacity:1" fill="#dcf8f4" d="M 318.5,107.5 C 320.833,107.5 323.167,107.5 325.5,107.5C 325.281,108.675 325.614,109.675 326.5,110.5C 330.579,113.14 334.912,115.306 339.5,117C 342.294,118.535 344.294,120.702 345.5,123.5C 336.359,118.429 327.359,113.095 318.5,107.5 Z"/></g>
<g><path style="opacity:1" fill="#f1f7f6" d="M 238.5,109.5 C 243.051,112.943 248.051,115.61 253.5,117.5C 264.94,125.396 276.94,132.562 289.5,139C 290.833,139.667 290.833,140.333 289.5,141C 282.824,144.67 276.491,148.836 270.5,153.5C 258.389,146.044 246.056,139.044 233.5,132.5C 225.944,126.802 217.944,121.636 209.5,117C 204.789,117.194 200.789,119.027 197.5,122.5C 191.527,125.821 185.527,129.155 179.5,132.5C 181.146,130.139 183.146,127.972 185.5,126C 184.833,125.667 184.167,125.333 183.5,125C 185.037,123.89 185.703,122.39 185.5,120.5C 189.58,119.756 192.913,117.756 195.5,114.5C 197.396,113.534 199.396,113.201 201.5,113.5C 201.5,112.5 201.5,111.5 201.5,110.5C 198.552,110.223 195.719,110.556 193,111.5C 192.833,111.167 192.667,110.833 192.5,110.5C 197.131,109.338 201.798,109.172 206.5,110C 212.249,116.372 218.916,121.539 226.5,125.5C 227.086,125.291 227.586,124.957 228,124.5C 229.617,125.851 230.784,127.518 231.5,129.5C 234.655,127.374 237.988,125.541 241.5,124C 242.337,122.989 242.67,121.822 242.5,120.5C 241.5,120.5 240.5,120.5 239.5,120.5C 239.179,113.834 240.512,113.167 243.5,118.5C 245.045,119.452 246.712,119.785 248.5,119.5C 248.191,116.654 246.525,115.154 243.5,115C 241.72,113.147 240.053,111.313 238.5,109.5 Z"/></g>
<g><path style="opacity:1" fill="#6ab0a3" d="M 233.5,132.5 C 228.33,129.749 222.996,127.249 217.5,125C 214.546,123.354 211.88,121.354 209.5,119C 208.667,118.833 207.833,118.667 207,118.5C 204.397,121.048 201.231,122.381 197.5,122.5C 200.789,119.027 204.789,117.194 209.5,117C 217.944,121.636 225.944,126.802 233.5,132.5 Z"/></g>
<g><path style="opacity:1" fill="#f6e9f7" d="M 162.5,115.5 C 161.079,117.907 159.746,120.407 158.5,123C 153.86,124.615 149.193,126.281 144.5,128C 141.197,133.585 136.197,136.085 129.5,135.5C 134.008,132.747 138.341,129.747 142.5,126.5C 142.833,126.5 143.167,126.5 143.5,126.5C 149.697,122.569 156.031,118.902 162.5,115.5 Z"/></g>
<g><path style="opacity:1" fill="#6caa9f" d="M 355.5,130.5 C 356.167,159.165 356.5,187.998 356.5,217C 356.5,246.174 355.833,275.008 354.5,303.5C 354.5,303.167 354.5,302.833 354.5,302.5C 355.499,245.336 355.832,188.002 355.5,130.5 Z"/></g>
<g><path style="opacity:1" fill="#60b1a2" d="M 351.5,128.5 C 353.062,128.733 354.395,129.4 355.5,130.5C 355.832,188.002 355.499,245.336 354.5,302.5C 354.667,246.166 354.5,189.832 354,133.5C 353.215,131.751 352.382,130.084 351.5,128.5 Z"/></g>
<g><path style="opacity:1" fill="#fbeefa" d="M 78.5,118.5 C 73.0036,122.416 67.3369,126.082 61.5,129.5C 60.1668,157.825 59.5002,186.492 59.5,215.5C 59.5039,244.571 59.8372,273.571 60.5,302.5C 59.8826,302.611 59.3826,302.944 59,303.5C 58.6667,301.167 58.3333,298.833 58,296.5C 57.6667,244.167 57.3333,191.833 57,139.5C 56.7266,137.899 56.2266,136.399 55.5,135C 56.9292,132.31 57.9292,129.477 58.5,126.5C 60.1992,126.66 61.8659,126.494 63.5,126C 67.4531,121.357 72.4531,118.857 78.5,118.5 Z"/></g>
<g><path style="opacity:1" fill="#643d5e" d="M 61.5,129.5 C 60.1695,185.264 60.1695,240.931 61.5,296.5C 61.3253,298.621 61.6586,300.621 62.5,302.5C 61.8333,302.5 61.1667,302.5 60.5,302.5C 59.8372,273.571 59.5039,244.571 59.5,215.5C 59.5002,186.492 60.1668,157.825 61.5,129.5 Z"/></g>
<g><path style="opacity:1" fill="#6f3967" d="M 105.5,103.5 C 104.19,105.148 102.857,106.814 101.5,108.5C 96.7888,110.08 92.7888,112.58 89.5,116C 86.6177,117.52 83.6177,118.853 80.5,120C 75.5336,123.927 70.2003,127.093 64.5,129.5C 63.7492,130.376 63.2492,131.376 63,132.5C 61.548,187.147 61.048,241.813 61.5,296.5C 60.1695,240.931 60.1695,185.264 61.5,129.5C 67.3369,126.082 73.0036,122.416 78.5,118.5C 85.6354,114.765 92.6354,110.765 99.5,106.5C 101.517,105.471 103.517,104.471 105.5,103.5 Z"/></g>
<g><path style="opacity:1" fill="#eddaec" d="M 119.5,141.5 C 119.611,142.117 119.944,142.617 120.5,143C 115.42,146.624 110.253,150.124 105,153.5C 104.167,194.171 104.333,234.837 105.5,275.5C 108.426,276.265 110.426,277.932 111.5,280.5C 108.242,279.092 105.076,277.426 102,275.5C 101.167,234.163 101.333,192.829 102.5,151.5C 107.728,147.387 113.395,144.054 119.5,141.5 Z"/></g>
<g><path style="opacity:1" fill="#f4f7f6" d="M 176.5,134.5 C 173.229,136.746 169.896,139.079 166.5,141.5C 179.589,149.925 192.922,157.925 206.5,165.5C 206.859,167.371 207.859,168.871 209.5,170C 219.413,176.101 229.413,181.934 239.5,187.5C 241.045,188.452 242.712,188.785 244.5,188.5C 244.5,189.5 244.5,190.5 244.5,191.5C 245.791,191.263 246.791,191.596 247.5,192.5C 245.504,245.156 244.838,298.156 245.5,351.5C 244.5,351.5 243.5,351.5 242.5,351.5C 241.824,297.793 241.824,244.126 242.5,190.5C 241.675,189.614 240.675,189.281 239.5,189.5C 239.313,191.564 238.813,193.564 238,195.5C 237.691,194.234 237.191,193.067 236.5,192C 233.833,191.667 231.167,191.333 228.5,191C 227.347,189.117 225.681,188.284 223.5,188.5C 223.552,190.903 223.219,193.236 222.5,195.5C 219.833,195.167 217.167,194.833 214.5,194.5C 214.167,194.5 213.833,194.5 213.5,194.5C 214.234,193.292 214.567,191.959 214.5,190.5C 212.712,190.785 211.045,190.452 209.5,189.5C 206.133,186.392 202.633,183.392 199,180.5C 198.692,181.308 198.192,181.975 197.5,182.5C 195.885,181.846 194.218,181.346 192.5,181C 193.167,180.667 193.833,180.333 194.5,180C 191.893,177.895 188.893,177.062 185.5,177.5C 183.706,175.203 181.706,173.037 179.5,171C 173.838,169.136 168.838,166.302 164.5,162.5C 166.199,162.66 167.866,162.494 169.5,162C 169.738,158.638 171.071,158.638 173.5,162C 177.152,162.499 180.818,162.665 184.5,162.5C 184.5,161.5 184.5,160.5 184.5,159.5C 177.836,159.407 171.836,157.407 166.5,153.5C 166.808,152.692 167.308,152.025 168,151.5C 171.373,154.438 174.207,154.105 176.5,150.5C 172.44,148.959 168.773,146.626 165.5,143.5C 164.386,142.277 164.219,140.944 165,139.5C 168.139,136.184 171.973,134.517 176.5,134.5 Z"/></g>
<g><path style="opacity:1" fill="#6d3b69" d="M 142.5,126.5 C 138.341,129.747 134.008,132.747 129.5,135.5C 125.827,137 122.494,139 119.5,141.5C 113.395,144.054 107.728,147.387 102.5,151.5C 101.333,192.829 101.167,234.163 102,275.5C 105.076,277.426 108.242,279.092 111.5,280.5C 111.5,280.833 111.5,281.167 111.5,281.5C 107.46,280.934 103.793,279.6 100.5,277.5C 100.616,235.147 100.449,192.814 100,150.5C 104.805,147.669 109.639,144.669 114.5,141.5C 115.816,140.193 116.816,138.693 117.5,137C 123.83,135.44 129.83,133.274 135.5,130.5C 135.5,129.5 135.5,128.5 135.5,127.5C 137.861,127.326 140.194,126.993 142.5,126.5 Z"/></g>
<g><path style="opacity:1" fill="#f3f9f2" d="M 106.5,159.5 C 108.329,196.153 109.162,233.153 109,270.5C 110.892,271.617 111.725,273.284 111.5,275.5C 108.762,276.035 106.928,275.035 106,272.5C 105.174,234.762 105.34,197.095 106.5,159.5 Z"/></g>
<g><path style="opacity:1" fill="#f6e3f5" d="M 154.5,159.5 C 157.785,159.269 160.285,160.603 162,163.5C 162.671,162.748 163.504,162.414 164.5,162.5C 168.838,166.302 173.838,169.136 179.5,171C 181.706,173.037 183.706,175.203 185.5,177.5C 182.183,175.863 178.85,174.196 175.5,172.5C 174.833,172.167 174.167,171.833 173.5,171.5C 167.146,167.469 160.813,163.469 154.5,159.5 Z"/></g>
<g><path style="opacity:1" fill="#fceefd" d="M 122.5,165.5 C 122.167,198.507 122.5,231.507 123.5,264.5C 127.083,265.78 130.083,267.78 132.5,270.5C 131.262,271.412 129.928,271.579 128.5,271C 125.833,269 123.167,267 120.5,265C 120.349,232.706 120.516,200.206 121,167.5C 121.278,166.584 121.778,165.918 122.5,165.5 Z"/></g>
<g><path style="opacity:1" fill="#7c4e77" d="M 154.5,159.5 C 160.813,163.469 167.146,167.469 173.5,171.5C 166.809,167.994 159.809,165.161 152.5,163C 151.167,162.333 151.167,161.667 152.5,161C 149.231,159.849 146.231,158.349 143.5,156.5C 137.695,160.374 131.695,164.04 125.5,167.5C 124.333,198.495 124.167,229.495 125,260.5C 126.34,261.868 127.674,263.201 129,264.5C 133.572,264.691 136.072,267.024 136.5,271.5C 135.167,271.167 133.833,270.833 132.5,270.5C 130.083,267.78 127.083,265.78 123.5,264.5C 122.5,231.507 122.167,198.507 122.5,165.5C 129.635,161.765 136.635,157.765 143.5,153.5C 147.061,155.779 150.727,157.779 154.5,159.5 Z"/></g>
<g><path style="opacity:1" fill="#733e6c" d="M 175.5,172.5 C 178.85,174.196 182.183,175.863 185.5,177.5C 193.337,182.251 201.004,187.251 208.5,192.5C 201.873,190.772 195.873,187.605 190.5,183C 186.111,182.28 182.111,180.613 178.5,178C 177.242,176.259 176.242,174.426 175.5,172.5 Z"/></g>
<g><path style="opacity:1" fill="#f3eaf6" d="M 185.5,177.5 C 188.893,177.062 191.893,177.895 194.5,180C 193.833,180.333 193.167,180.667 192.5,181C 194.218,181.346 195.885,181.846 197.5,182.5C 198.192,181.975 198.692,181.308 199,180.5C 202.633,183.392 206.133,186.392 209.5,189.5C 211.045,190.452 212.712,190.785 214.5,190.5C 214.567,191.959 214.234,193.292 213.5,194.5C 211.95,193.559 210.284,192.893 208.5,192.5C 201.004,187.251 193.337,182.251 185.5,177.5 Z"/></g>
<g><path style="opacity:1" fill="#e1fbf9" d="M 206.5,165.5 C 209.713,168.274 213.38,170.274 217.5,171.5C 217.953,172.458 218.619,173.292 219.5,174C 228.191,178.341 236.525,183.175 244.5,188.5C 242.712,188.785 241.045,188.452 239.5,187.5C 229.413,181.934 219.413,176.101 209.5,170C 207.859,168.871 206.859,167.371 206.5,165.5 Z"/></g>
<g><path style="opacity:1" fill="#68ab9d" d="M 313.5,179.5 C 314.117,179.611 314.617,179.944 315,180.5C 314.39,227.818 314.39,275.152 315,322.5C 316.356,323.38 317.856,323.714 319.5,323.5C 319.5,323.833 319.5,324.167 319.5,324.5C 317.742,324.877 316.075,325.544 314.5,326.5C 313.614,325.675 313.281,324.675 313.5,323.5C 313.5,275.5 313.5,227.5 313.5,179.5 Z"/></g>
<g><path style="opacity:1" fill="#faf4f8" d="M 300.5,190.5 C 301.793,189.355 302.959,189.689 304,191.5C 304.667,233.833 304.667,276.167 304,318.5C 302.156,321.188 302.323,323.855 304.5,326.5C 305.688,324.012 307.021,321.678 308.5,319.5C 309.333,276.837 309.833,234.171 310,191.5C 310.214,231.507 310.714,271.507 311.5,311.5C 311.747,317.085 310.747,322.418 308.5,327.5C 308.994,330.012 309.994,332.345 311.5,334.5C 310.833,334.833 310.167,335.167 309.5,335.5C 307.486,333.796 305.819,331.796 304.5,329.5C 303.573,331.113 302.739,332.779 302,334.5C 301.833,286.332 301.333,238.332 300.5,190.5 Z"/></g>
<g><path style="opacity:1" fill="#d7fef7" d="M 295.5,188.5 C 294.838,238.264 294.171,287.931 293.5,337.5C 292.838,287.489 293.505,237.822 295.5,188.5 Z"/></g>
<g><path style="opacity:1" fill="#d7fef7" d="M 313.5,179.5 C 313.5,227.5 313.5,275.5 313.5,323.5C 312.813,278.313 312.147,232.98 311.5,187.5C 312.8,184.976 312.8,182.309 311.5,179.5C 310.583,180.127 309.583,180.461 308.5,180.5C 309.879,178.403 311.545,178.07 313.5,179.5 Z"/></g>
<g><path style="opacity:1" fill="#62aa9a" d="M 303.5,182.5 C 300.476,184.013 297.809,186.013 295.5,188.5C 293.505,237.822 292.838,287.489 293.5,337.5C 292.035,338.737 290.368,339.737 288.5,340.5C 289.184,338.551 290.351,336.885 292,335.5C 292.167,311.5 292.333,287.5 292.5,263.5C 292.486,238.89 291.819,214.39 290.5,190C 292.35,187.392 294.684,185.225 297.5,183.5C 299.409,182.652 301.409,182.318 303.5,182.5 Z"/></g>
<g><path style="opacity:1" fill="#e8fbf8" d="M 311.5,187.5 C 311.5,185.833 311.5,184.167 311.5,182.5C 308.712,182.077 306.712,183.077 305.5,185.5C 303.922,186.298 302.256,186.798 300.5,187C 299.315,188.353 297.981,189.52 296.5,190.5C 295.667,239.83 295.167,289.163 295,338.5C 292.838,341.981 289.671,343.815 285.5,344C 281.656,347.392 277.323,349.558 272.5,350.5C 277.797,347.181 283.131,343.847 288.5,340.5C 290.368,339.737 292.035,338.737 293.5,337.5C 294.171,287.931 294.838,238.264 295.5,188.5C 297.809,186.013 300.476,184.013 303.5,182.5C 305.284,182.107 306.95,181.441 308.5,180.5C 309.583,180.461 310.583,180.127 311.5,179.5C 312.8,182.309 312.8,184.976 311.5,187.5 Z"/></g>
<g><path style="opacity:1" fill="#80567b" d="M 225.5,201.5 C 226.721,202.028 227.887,202.695 229,203.5C 229.5,260.832 229.667,318.166 229.5,375.5C 227.692,375.491 226.025,375.991 224.5,377C 220.964,378.929 217.631,381.096 214.5,383.5C 212.037,384.233 209.703,385.233 207.5,386.5C 205.555,385.872 203.888,384.872 202.5,383.5C 205.187,383.664 207.854,383.497 210.5,383C 214.6,378.615 219.6,375.782 225.5,374.5C 226.298,374.043 226.631,373.376 226.5,372.5C 227.167,344.502 227.5,316.335 227.5,288C 227.484,259.021 226.817,230.188 225.5,201.5 Z"/></g>
<g><path style="opacity:1" fill="#fbf0fb" d="M 214.5,194.5 C 217.167,194.833 219.833,195.167 222.5,195.5C 222.511,197.017 223.177,198.184 224.5,199C 227.242,200.07 229.742,201.57 232,203.5C 232.667,261.5 232.667,319.5 232,377.5C 228.762,379.358 225.262,380.692 221.5,381.5C 220.719,382.737 219.719,383.737 218.5,384.5C 217.808,383.975 217.308,383.308 217,382.5C 216.329,383.252 215.496,383.586 214.5,383.5C 217.631,381.096 220.964,378.929 224.5,377C 226.025,375.991 227.692,375.491 229.5,375.5C 229.667,318.166 229.5,260.832 229,203.5C 227.887,202.695 226.721,202.028 225.5,201.5C 221.564,199.558 217.897,197.225 214.5,194.5 Z"/></g>
<g><path style="opacity:1" fill="#6e3668" d="M 208.5,192.5 C 210.284,192.893 211.95,193.559 213.5,194.5C 213.833,194.5 214.167,194.5 214.5,194.5C 217.897,197.225 221.564,199.558 225.5,201.5C 226.817,230.188 227.484,259.021 227.5,288C 227.5,316.335 227.167,344.502 226.5,372.5C 226.81,316.655 226.477,260.655 225.5,204.5C 220.189,201.844 214.856,199.178 209.5,196.5C 209.212,195.139 208.879,193.806 208.5,192.5 Z"/></g>
<g><path style="opacity:1" fill="#65b3a4" d="M 217.5,171.5 C 220.657,171.079 222.99,172.245 224.5,175C 234.279,179.389 243.612,184.555 252.5,190.5C 251.338,246.126 251.171,301.793 252,357.5C 252.561,358.022 253.228,358.355 254,358.5C 255.996,356.339 258.162,354.339 260.5,352.5C 261.167,352.833 261.833,353.167 262.5,353.5C 265.234,351.629 268.234,350.629 271.5,350.5C 264.971,353.928 258.638,357.594 252.5,361.5C 250.837,339.686 249.837,317.686 249.5,295.5C 249.833,260.494 249.5,225.494 248.5,190.5C 247.14,189.82 245.807,189.153 244.5,188.5C 236.525,183.175 228.191,178.341 219.5,174C 218.619,173.292 217.953,172.458 217.5,171.5 Z"/></g>
<g><path style="opacity:1" fill="#61415e" d="M 165.5,218.5 C 165.5,241.5 165.5,264.5 165.5,287.5C 163.085,288.648 161.085,287.982 159.5,285.5C 160.583,285.539 161.583,285.873 162.5,286.5C 163.386,285.675 163.719,284.675 163.5,283.5C 164.167,261.833 164.833,240.167 165.5,218.5 Z"/></g>
<g><path style="opacity:1" fill="#693c64" d="M 163.5,214.5 C 164.167,214.5 164.833,214.5 165.5,214.5C 165.5,215.833 165.5,217.167 165.5,218.5C 164.833,240.167 164.167,261.833 163.5,283.5C 163.5,260.5 163.5,237.5 163.5,214.5 Z"/></g>
<g><path style="opacity:1" fill="#fbecfb" d="M 165.5,214.5 C 166.167,214.5 166.833,214.5 167.5,214.5C 173.37,217.93 179.037,221.597 184.5,225.5C 182.227,224.265 180.394,224.598 179,226.5C 177.361,222.785 174.194,220.118 169.5,218.5C 167.954,219.212 166.954,220.378 166.5,222C 167.221,240.646 167.888,259.313 168.5,278C 168.376,280.532 168.043,283.032 167.5,285.5C 167.253,286.713 166.586,287.38 165.5,287.5C 165.5,264.5 165.5,241.5 165.5,218.5C 165.5,217.167 165.5,215.833 165.5,214.5 Z"/></g>
<g><path style="opacity:1" fill="#fbecfc" d="M 184.5,225.5 C 185.492,225.328 186.158,225.662 186.5,226.5C 186.667,259.502 186.5,292.502 186,325.5C 185.329,324.748 184.496,324.414 183.5,324.5C 173.826,319.333 164.492,313.666 155.5,307.5C 158.301,308.766 161.301,309.599 164.5,310C 166.64,310.973 168.307,312.473 169.5,314.5C 171.743,315.474 174.076,315.808 176.5,315.5C 176.33,316.822 176.663,317.989 177.5,319C 179.289,319.914 181.123,320.747 183,321.5C 183.833,321.167 184.667,320.833 185.5,320.5C 184.837,290.304 184.17,260.137 183.5,230C 185.991,229.374 185.991,228.541 183.5,227.5C 183.863,226.817 184.196,226.15 184.5,225.5 Z"/></g>
<g><path style="opacity:1" fill="#71396a" d="M 167.5,214.5 C 172.067,215.943 176.734,217.11 181.5,218C 183.356,220.69 185.689,222.856 188.5,224.5C 189.283,229.447 189.783,234.447 190,239.5C 190.942,268.864 190.609,298.197 189,327.5C 187.192,329.396 185.025,329.896 182.5,329C 180.855,325.678 178.188,324.178 174.5,324.5C 174.5,323.167 174.5,321.833 174.5,320.5C 172.396,320.799 170.396,320.466 168.5,319.5C 163.748,314.594 158.081,311.094 151.5,309C 150.418,307.67 149.751,306.17 149.5,304.5C 150.833,305.167 152.167,305.833 153.5,306.5C 154.167,306.833 154.833,307.167 155.5,307.5C 164.492,313.666 173.826,319.333 183.5,324.5C 184.287,326.104 185.62,326.771 187.5,326.5C 187.832,292.996 187.498,259.662 186.5,226.5C 186.158,225.662 185.492,225.328 184.5,225.5C 179.037,221.597 173.37,217.93 167.5,214.5 Z"/></g>
<g><path style="opacity:1" fill="#b793b3" d="M 186.5,226.5 C 187.498,259.662 187.832,292.996 187.5,326.5C 185.62,326.771 184.287,326.104 183.5,324.5C 184.496,324.414 185.329,324.748 186,325.5C 186.5,292.502 186.667,259.502 186.5,226.5 Z"/></g>
<g><path style="opacity:1" fill="#72376a" d="M 163.5,214.5 C 163.5,237.5 163.5,260.5 163.5,283.5C 163.719,284.675 163.386,285.675 162.5,286.5C 161.583,285.873 160.583,285.539 159.5,285.5C 151.298,281.572 143.631,276.906 136.5,271.5C 139.518,271.335 142.518,271.502 145.5,272C 149.527,276.681 154.527,279.848 160.5,281.5C 161.168,279.074 161.502,276.741 161.5,274.5C 159.657,274.245 157.657,274.078 155.5,274C 154.167,273 154.167,272 155.5,271C 157.791,270.985 159.958,270.818 162,270.5C 162.825,251.926 162.659,233.426 161.5,215C 162.094,214.536 162.761,214.369 163.5,214.5 Z"/></g>
<g><path style="opacity:1" fill="#f7e6f5" d="M 153.5,306.5 C 152.167,305.833 150.833,305.167 149.5,304.5C 148.609,303.89 147.609,303.557 146.5,303.5C 140.844,299.004 134.844,295.004 128.5,291.5C 129.583,291.461 130.583,291.127 131.5,290.5C 135.217,292.045 138.55,294.212 141.5,297C 145.413,296.56 148.079,298.06 149.5,301.5C 152.342,302.004 153.675,303.671 153.5,306.5 Z"/></g>
<g><path style="opacity:1" fill="#703e6a" d="M 122.5,288.5 C 124.5,289.5 126.5,290.5 128.5,291.5C 134.844,295.004 140.844,299.004 146.5,303.5C 142.917,302.276 139.251,301.11 135.5,300C 130.872,296.669 126.206,293.336 121.5,290C 122.056,289.617 122.389,289.117 122.5,288.5 Z"/></g>
<g><path style="opacity:1" fill="#97cfc4" d="M 249.5,295.5 C 249.837,317.686 250.837,339.686 252.5,361.5C 251.5,362.833 250.5,362.833 249.5,361.5C 249.5,339.5 249.5,317.5 249.5,295.5 Z"/></g>
<g><path style="opacity:1" fill="#e0fdf9" d="M 244.5,188.5 C 245.807,189.153 247.14,189.82 248.5,190.5C 249.5,225.494 249.833,260.494 249.5,295.5C 249.5,317.5 249.5,339.5 249.5,361.5C 247.707,361.116 246.707,359.95 246.5,358C 247.078,356.189 247.578,354.355 248,352.5C 248.832,298.998 248.665,245.665 247.5,192.5C 246.791,191.596 245.791,191.263 244.5,191.5C 244.5,190.5 244.5,189.5 244.5,188.5 Z"/></g>
<g><path style="opacity:1" fill="#75426b" d="M 64.5,303.5 C 69.39,304.633 74.0567,306.466 78.5,309C 79.3366,310.011 79.67,311.178 79.5,312.5C 74.2985,309.737 69.2985,306.737 64.5,303.5 Z"/></g>
<g><path style="opacity:1" fill="#e6fbf7" d="M 345.5,123.5 C 347.5,123.5 349.5,123.5 351.5,123.5C 351.5,124.5 351.5,125.5 351.5,126.5C 353.467,126.261 355.301,126.594 357,127.5C 358.449,131.101 359.616,134.768 360.5,138.5C 359.683,193.488 359.183,248.488 359,303.5C 358.017,305.448 356.85,307.282 355.5,309C 353.209,309.015 351.042,309.182 349,309.5C 350.771,311.237 351.605,313.571 351.5,316.5C 350.167,316.5 348.833,316.5 347.5,316.5C 347.5,315.167 347.5,313.833 347.5,312.5C 344.136,311.789 341.803,312.956 340.5,316C 334.386,316.034 329.386,318.367 325.5,323C 323.482,323.505 321.482,324.005 319.5,324.5C 319.5,324.167 319.5,323.833 319.5,323.5C 331.658,317.591 343.325,310.924 354.5,303.5C 355.833,275.008 356.5,246.174 356.5,217C 356.5,187.998 356.167,159.165 355.5,130.5C 354.395,129.4 353.062,128.733 351.5,128.5C 349.869,126.357 347.869,124.69 345.5,123.5 Z"/></g>
<g><path style="opacity:1" fill="#70436b" d="M 81.5,313.5 C 83.9201,313.292 86.2534,313.626 88.5,314.5C 89.9522,317.122 92.1188,318.788 95,319.5C 95.4643,320.094 95.631,320.761 95.5,321.5C 92.1667,319.833 88.8333,318.167 85.5,316.5C 84.1667,315.5 82.8333,314.5 81.5,313.5 Z"/></g>
<g><path style="opacity:1" fill="#f9eaf7" d="M 85.5,316.5 C 88.8333,318.167 92.1667,319.833 95.5,321.5C 100.5,324.833 105.5,328.167 110.5,331.5C 107.769,332.374 105.602,331.374 104,328.5C 103.667,328.833 103.333,329.167 103,329.5C 100.572,328.37 98.4053,326.87 96.5,325C 94.7928,324.805 93.1261,324.805 91.5,325C 91.8333,324.667 92.1667,324.333 92.5,324C 91.5,323.667 90.5,323.333 89.5,323C 89.8333,322.667 90.1667,322.333 90.5,322C 88.2342,320.574 86.5676,318.74 85.5,316.5 Z"/></g>
<g><path style="opacity:1" fill="#74426f" d="M 95.5,321.5 C 99.7535,322.869 104.087,323.869 108.5,324.5C 108.5,325.5 108.5,326.5 108.5,327.5C 113.886,327.608 116.886,329.941 117.5,334.5C 115.5,333.5 113.5,332.5 111.5,331.5C 111.167,331.5 110.833,331.5 110.5,331.5C 105.5,328.167 100.5,324.833 95.5,321.5 Z"/></g>
<g><path style="opacity:1" fill="#f9ecf8" d="M 111.5,331.5 C 113.5,332.5 115.5,333.5 117.5,334.5C 120.713,337.274 124.38,339.274 128.5,340.5C 129.694,341.272 130.694,342.272 131.5,343.5C 129.407,344.973 127.74,344.473 126.5,342C 121.815,339.995 117.148,337.995 112.5,336C 111.62,334.644 111.286,333.144 111.5,331.5 Z"/></g>
<g><path style="opacity:1" fill="#733c6c" d="M 128.5,340.5 C 133.225,339.524 136.892,341.024 139.5,345C 143.5,345.333 147.5,345.667 151.5,346C 150.833,347.333 150.167,348.667 149.5,350C 152.563,352.245 155.897,354.079 159.5,355.5C 162.038,359.401 165.704,361.067 170.5,360.5C 170.604,362.703 171.27,364.703 172.5,366.5C 158.995,358.58 145.328,350.913 131.5,343.5C 130.694,342.272 129.694,341.272 128.5,340.5 Z"/></g>
<g><path style="opacity:1" fill="#f7ecf8" d="M 192.5,378.5 C 195.85,380.196 199.183,381.863 202.5,383.5C 203.888,384.872 205.555,385.872 207.5,386.5C 209.703,385.233 212.037,384.233 214.5,383.5C 215.706,384.88 215.373,386.047 213.5,387C 211.532,388.544 209.365,389.711 207,390.5C 204.901,389.534 203.068,388.2 201.5,386.5C 200.522,386.977 199.689,387.643 199,388.5C 195.645,385.925 193.478,382.592 192.5,378.5 Z"/></g>
</svg>
